<svg xmlns="http://www.w3.org/2000/svg">
  <symbol id="bluesky-icon" viewBox="0 0 16 17">
    <g clip-path="url(#bluesky-clip)"><path fill="#08060d" d="M7.75 7.735c-.693-1.348-2.58-3.86-4.334-5.097-1.68-1.187-2.32-.981-2.74-.79C.188 2.065.1 2.812.1 3.251s.241 3.602.398 4.13c.52 1.744 2.367 2.333 4.07 2.145-2.495.37-4.71 1.278-1.805 4.512 3.196 3.309 4.38-.71 4.987-2.746.608 2.036 1.307 5.91 4.93 2.746 2.72-2.746.747-4.143-1.747-4.512 1.702.189 3.55-.4 4.07-2.145.156-.528.397-3.691.397-4.13s-.088-1.186-.575-1.406c-.42-.19-1.06-.395-2.741.79-1.755 1.24-3.64 3.752-4.334 5.099"/></g>
    <defs><clipPath id="bluesky-clip"><path fill="#fff" d="M.1.85h15.3v15.3H.1z"/></clipPath></defs>
  </symbol>
  <symbol id="discord-icon" viewBox="0 0 20 19">
    <path fill="#08060d" d="M16.224 3.768a14.5 14.5 0 0 0-3.67-1.153c-.158.286-.343.67-.47.976a13.5 13.5 0 0 0-4.067 0c-.128-.306-.317-.69-.476-.976A14.4 14.4 0 0 0 3.868 3.77C1.546 7.28.916 10.703 1.231 14.077a14.7 14.7 0 0 0 4.5 2.306q.545-.748.965-1.587a9.5 9.5 0 0 1-1.518-.74q.191-.14.372-.293c2.927 1.369 6.107 1.369 8.999 0q.183.152.372.294-.723.437-1.52.74.418.838.963 1.588a14.6 14.6 0 0 0 4.504-2.308c.37-3.911-.63-7.302-2.644-10.309m-9.13 8.234c-.878 0-1.599-.82-1.599-1.82 0-.998.705-1.82 1.6-1.82.894 0 1.614.82 1.599 1.82.001 1-.705 1.82-1.6 1.82m5.91 0c-.878 0-1.599-.82-1.599-1.82 0-.998.705-1.82 1.6-1.82.893 0 1.614.82 1.599 1.82 0 1-.706 1.82-1.6 1.82"/>
  </symbol>
  <symbol id="documentation-icon" viewBox="0 0 21 20">
    <path fill="none" stroke="#aa3bff" stroke-linecap="round" stroke-linejoin="round" stroke-width="1.35" d="m15.5 13.333 1.533 1.322c.645.555.967.833.967 1.178s-.322.623-.967 1.179L15.5 18.333m-3.333-5-1.534 1.322c-.644.555-.966.833-.966 1.178s.322.623.966 1.179l1.534 1.321"/>
    <path fill="none" stroke="#aa3bff" stroke-linecap="round" stroke-linejoin="round" stroke-width="1.35" d="M17.167 10.836v-4.32c0-1.41 0-2.117-.224-2.68-.359-.906-1.118-1.621-2.08-1.96-.599-.21-1.349-.21-2.848-.21-2.623 0-3.935 0-4.983.369-1.684.591-3.013 1.842-3.641 3.428C3 6.449 3 7.684 3 10.154v2.122c0 2.558 0 3.838.706 4.726q.306.383.713.671c.76.536 1.79.64 3.581.66"/>
    <path fill="none" stroke="#aa3bff" stroke-linecap="round" stroke-linejoin="round" stroke-width="1.35" d="M3 10a2.78 2.78 0 0 1 2.778-2.778c.555 0 1.209.097 1.748-.047.48-.129.854-.503.982-.982.145-.54.048-1.194.048-1.749a2.78 2.78 0 0 1 2.777-2.777"/>
  </symbol>
  <symbol id="github-icon" viewBox="0 0 19 19">
    <path fill="#08060d" fill-rule="evenodd" d="M9.356 1.85C5.05 1.85 1.57 5.356 1.57 9.694a7.84 7.84 0 0 0 5.324 7.44c.387.079.528-.168.528-.376 0-.182-.013-.805-.013-1.454-2.165.467-2.616-.935-2.616-.935-.349-.91-.864-1.143-.864-1.143-.71-.48.051-.48.051-.48.787.051 1.2.805 1.2.805.695 1.194 1.817.857 2.268.649.064-.507.27-.857.49-1.052-1.728-.182-3.545-.857-3.545-3.87 0-.857.31-1.558.8-2.104-.078-.195-.349-1 .077-2.078 0 0 .657-.208 2.14.805a7.5 7.5 0 0 1 1.946-.26c.657 0 1.328.092 1.946.26 1.483-1.013 2.14-.805 2.14-.805.426 1.078.155 1.883.078 2.078.502.546.799 1.247.799 2.104 0 3.013-1.818 3.675-3.558 3.87.284.247.528.714.528 1.454 0 1.052-.012 1.896-.012 2.156 0 .208.142.455.528.377a7.84 7.84 0 0 0 5.324-7.441c.013-4.338-3.48-7.844-7.773-7.844" clip-rule="evenodd"/>
  </symbol>
  <symbol id="social-icon" viewBox="0 0 20 20">
    <path fill="none" stroke="#aa3bff" stroke-linecap="round" stroke-linejoin="round" stroke-width="1.35" d="M12.5 6.667a4.167 4.167 0 1 0-8.334 0 4.167 4.167 0 0 0 8.334 0"/>
    <path fill="none" stroke="#aa3bff" stroke-linecap="round" stroke-linejoin="round" stroke-width="1.35" d="M2.5 16.667a5.833 5.833 0 0 1 8.75-5.053m3.837.474.513 1.035c.07.144.257.282.414.309l.93.155c.596.1.736.536.307.965l-.723.73a.64.64 0 0 0-.152.531l.207.903c.164.715-.213.991-.84.618l-.872-.52a.63.63 0 0 0-.577 0l-.872.52c-.624.373-1.003.094-.84-.618l.207-.903a.64.64 0 0 0-.152-.532l-.723-.729c-.426-.43-.289-.864.306-.964l.93-.156a.64.64 0 0 0 .412-.31l.513-1.034c.28-.562.735-.562 1.012 0"/>
  </symbol>
  <symbol id="x-icon" viewBox="0 0 19 19">
    <path fill="#08060d" fill-rule="evenodd" d="M1.893 1.98c.052.072 1.245 1.769 2.653 3.77l2.892 4.114c.183.261.333.48.333.486s-.068.089-.152.183l-.522.593-.765.867-3.597 4.087c-.375.426-.734.834-.798.905a1 1 0 0 0-.118.148c0 .01.236.017.664.017h.663l.729-.83c.4-.457.796-.906.879-.999a692 692 0 0 0 1.794-2.038c.034-.037.301-.34.594-.675l.551-.624.345-.392a7 7 0 0 1 .34-.374c.006 0 .93 1.306 2.052 2.903l2.084 2.965.045.063h2.275c1.87 0 2.273-.003 2.266-.021-.008-.02-1.098-1.572-3.894-5.547-2.013-2.862-2.28-3.246-2.273-3.266.008-.019.282-.332 2.085-2.38l2-2.274 1.567-1.782c.022-.028-.016-.03-.65-.03h-.674l-.3.342a871 871 0 0 1-1.782 2.025c-.067.075-.405.458-.75.852a100 100 0 0 1-.803.91c-.148.172-.299.344-.99 1.127-.304.343-.32.358-.345.327-.015-.019-.904-1.282-1.976-2.808L6.365 1.85H1.8zm1.782.91 8.078 11.294c.772 1.08 1.413 1.973 1.425 1.984.016.017.241.02 1.05.017l1.03-.004-2.694-3.766L7.796 5.75 5.722 2.852l-1.039-.004-1.039-.004z" clip-rule="evenodd"/>
  </symbol>
  <symbol id="icon-rocket" viewBox="0 0 24 24">
    <path d="M13.13,22.19L11.5,18.35L7.04,18.64L2.31,21.09L3.9,16.27L1.29,12.29L5.88,11.75L6.04,7.12L10.38,10.12L14.22,8.49L12.35,13.23L16.33,15.84L11.75,16.4L13.13,22.19M18.96,3.47C18.17,2.68 16.92,2.68 16.13,3.47L15.34,4.26L19.74,8.66L20.53,7.87C21.32,7.08 21.32,5.83 20.53,5.04L18.96,3.47M14.55,5.05L6.38,13.22L10.78,17.62L18.95,9.45L14.55,5.05Z"/>
  </symbol>
  <symbol id="icon-close" viewBox="0 0 24 24">
    <path fill="currentColor" d="M19,6.41L17.59,5L12,10.59L6.41,5L5,6.41L10.59,12L5,17.59L6.41,19L12,13.41L17.59,19L19,17.59L13.41,12L19,6.41Z"/>
  </symbol>
  <symbol id="icon-search" viewBox="0 0 24 24">
    <path fill="currentColor" d="M9.5,3A6.5,6.5 0 0,1 16,9.5C16,11.11 15.41,12.59 14.44,13.73L14.71,14H15.5L20.5,19L19,20.5L14,15.5V14.71L13.73,14.44C12.59,15.41 11.11,16 9.5,16A6.5,6.5 0 0,1 3,9.5A6.5,6.5 0 0,1 9.5,3M9.5,5C7,5 5,7 5,9.5C5,12 7,14 9.5,14C12,14 14,12 14,9.5C14,7 12,5 9.5,5Z"/>
  </symbol>
  <symbol id="icon-arrow-left" viewBox="0 0 24 24">
    <path fill="currentColor" d="M20,11V13H8L13.5,18.5L12.08,19.92L4.16,12L12.08,4.08L13.5,5.5L8,11H20Z"/>
  </symbol>
  <symbol id="icon-leaf" viewBox="0 0 24 24">
    <path fill="currentColor" d="M17,8C8,10 5.9,16.17 3.82,21.34L5.71,22L6.66,19.7C7.14,19.87 7.64,20 8,20C19,20 22,3 22,3C21,5 14,5.25 9,6.25C4,7.25 2,11.5 2,13.5C2,15.5 3.75,17.25 3.75,17.25C7,11 17,8 17,8Z"/>
  </symbol>
  <symbol id="icon-compass" viewBox="0 0 24 24">
    <path fill="currentColor" d="M12,2A10,10 0 0,0 2,12A10,10 0 0,0 12,22A10,10 0 0,0 22,12A10,10 0 0,0 12,2M15,15L7,17L9,9L17,7L15,15M12,10.9A1.1,1.1 0 0,0 10.9,12A1.1,1.1 0 0,0 12,13.1A1.1,1.1 0 0,0 13.1,12A1.1,1.1 0 0,0 12,10.9Z"/>
  </symbol>
  <symbol id="icon-paw" viewBox="0 0 24 24">
    <path fill="currentColor" d="M8.5,8.5C7.67,8.5 7,7.83 7,7C7,6.17 7.67,5.5 8.5,5.5C9.33,5.5 10,6.17 10,7C10,7.83 9.33,8.5 8.5,8.5M15.5,8.5C14.67,8.5 14,7.83 14,7C14,6.17 14.67,5.5 15.5,5.5C16.33,5.5 17,6.17 17,7C17,7.83 16.33,8.5 15.5,8.5M4.5,13.5C3.67,13.5 3,12.83 3,12C3,11.17 3.67,10.5 4.5,10.5C5.33,10.5 6,11.17 6,12C6,12.83 5.33,13.5 4.5,13.5M19.5,13.5C18.67,13.5 18,12.83 18,12C18,11.17 18.67,10.5 19.5,10.5C20.33,10.5 21,11.17 21,12C21,12.83 20.33,13.5 19.5,13.5M16.5,19C16.5,20.66 14.66,22 12,22C9.34,22 7.5,20.66 7.5,19C7.5,17.34 9.5,14 12,14C14.5,14 16.5,17.34 16.5,19Z"/>
  </symbol>
  <symbol id="icon-hourglass" viewBox="0 0 24 24">
    <path fill="currentColor" d="M6 2h12v6l-4 4 4 4v6H6v-6l4-4-4-4V2zm10 14.5l-4-4-4 4V20h8v-3.5zm-8-9l4 4 4-4V4H8v3.5z"/>
  </symbol>
  <symbol id="icon-fish" viewBox="0 0 24 24">
    <path fill="currentColor" d="M21,12C21,12 18,5 12,5C10,5 7,6 5,8C3,10 2,12 2,12C2,12 3,14 5,16C7,18 10,19 12,19C18,19 21,12 21,12M12,17A5,5 0 0,1 7,12A5,5 0 0,1 12,7A5,5 0 0,1 17,12A5,5 0 0,1 12,17Z" />
  </symbol>
  <symbol id="icon-bug" viewBox="0 0 24 24">
    <path fill="currentColor" d="M14,12H10V10H14V12M14,14H10V16H14V14M16,8H14V6.5C14,5.12 12.88,4 11.5,4C10.12,4 9,5.12 9,6.5V8H7V10H9V12H7V14H9V16H7V18H9V20H15V18H17V16H15V14H17V12H15V10H17V8H16M11,6.5C11,6.22 11.22,6 11.5,6C11.78,6 12,6.22 12,6.5V8H11V6.5Z" />
  </symbol>
  <symbol id="icon-palette" viewBox="0 0 24 24">
    <path fill="currentColor" d="M12,2A10,10 0 0,0 2,12A10,10 0 0,0 12,22A2,2 0 0,0 14,20A2,2 0 0,0 12,18C11.5,18 11.1,17.6 11.1,17.1C11.1,16.8 11.2,16.6 11.4,16.4C11.7,16.2 12,16.1 12.3,16.1C14.4,16.1 16.1,14.4 16.1,12.3C16.1,11 15.6,9.8 14.7,8.9C13.8,8 12.6,7.5 11.3,7.5A4.7,4.7 0 0,0 6.6,12.2C6.6,14.8 8.7,16.9 11.3,16.9C11.8,16.9 12.2,17.3 12.2,17.8C12.2,18.3 11.8,18.7 11.3,18.7C8.7,18.7 6.6,16.6 6.6,14C6.6,11.4 8.7,9.3 11.3,9.3C13.9,9.3 16,11.4 16,14C16,16.6 13.9,18.7 11.3,18.7Z" />
  </symbol>
  <symbol id="icon-human" viewBox="0 0 24 24">
    <path fill="currentColor" d="M12,2C13.1,2 14,2.9 14,4C14,5.1 13.1,6 12,6C10.9,6 10,5.1 10,4C10,2.9 10.9,2 12,2M13,7H11C8.8,7 7,8.8 7,11V16H8.5V22H11V18H13V22H15.5V16H17V11C17,8.8 15.2,7 13,7Z" />
  </symbol>
  <symbol id="icon-dino" viewBox="0 0 24 24">
    <path fill="currentColor" d="M18,3V5H15V7H13V9H11V11H9V13H7V15H5V17H3V19H21V17H19V15H17V13H15V11H17V9H19V7H21V3H18M11,13H13V15H11V13Z" />
  </symbol>
  <symbol id="icon-lightbulb" viewBox="0 0 24 24">
    <path fill="currentColor" d="M12,2A7,7 0 0,0 5,9C5,11.38 6.19,13.47 8,14.74V17A1,1 0 0,0 9,18H15A1,1 0 0,0 16,17V14.74C17.81,13.47 19,11.38 19,9A7,7 0 0,0 12,2M9,21A1,1 0 0,0 10,22H14A1,1 0 0,0 15,21V20H9V21Z" />
  </symbol>
  <symbol id="icon-help" viewBox="0 0 24 24">
    <path fill="currentColor" d="M11,18H13V16H11V18M12,2A10,10 0 0,0 2,12A10,10 0 0,0 12,22A10,10 0 0,0 22,12A10,10 0 0,0 12,2M12,20C6.48,20 2,15.52 2,12C2,6.48 6.48,2 12,2C17.52,2 22,6.48 22,12C22,15.52 17.52,20 12,20M12,6A4,4 0 0,0 8,10H10A2,2 0 0,1 12,8A2,2 0 0,1 14,10C14,12 11,11.75 11,15H13C13,12.75 16,12.5 16,10A4,4 0 0,0 12,6Z" />
  </symbol>
</svg>
